<svg xmlns="http://www.w3.org/2000/svg" width="144" height="144" viewBox="0 0 144 144"><rect x="48" y="32" width="16" height="16" style="fill:#1c1e21"/><rect x="64" y="48" width="16" height="16" style="fill:#1c1e21"/><rect x="96" y="48" width="16" height="16" style="fill:#1c1e21"/><rect x="112" y="16" width="16" height="16" style="fill:#1c1e21"/><rect x="16" y="16" width="16" height="16" style="fill:#1c1e21"/><rect x="16" y="112" width="16" height="16" style="fill:#1c1e21"/><rect x="112" y="112" width="16" height="16" style="fill:#1c1e21"/><rect x="32" y="48" width="16" height="16" style="fill:#1c1e21"/><rect x="80" y="32" width="16" height="16" style="fill:#1c1e21"/><rect x="48" y="64" width="16" height="16" style="fill:#1c1e21"/><rect x="64" y="80" width="16" height="16" style="fill:#1c1e21"/><rect x="96" y="80" width="16" height="16" style="fill:#1c1e21"/><rect x="32" y="80" width="16" height="16" style="fill:#1c1e21"/><rect x="80" y="64" width="16" height="16" style="fill:#1c1e21"/><rect x="48" y="96" width="16" height="16" style="fill:#1c1e21"/><rect x="80" y="96" width="16" height="16" style="fill:#1c1e21"/><rect x="64" width="16" height="16" style="fill:#1c1e21"/><rect x="64" y="128" width="16" height="16" style="fill:#1c1e21"/><rect x="128" y="64" width="16" height="16" style="fill:#1c1e21"/><rect y="64" width="16" height="16" style="fill:#1c1e21"/></svg>
