<svg id="Layer_1" data-name="Layer 1" xmlns="http://www.w3.org/2000/svg" width="836.5" height="144" viewBox="0 0 836.5 144"><rect x="48" y="32" width="16" height="16" style="fill:#f2f2f2"/><rect x="64" y="48" width="16" height="16" style="fill:#f2f2f2"/><rect x="96" y="48" width="16" height="16" style="fill:#f2f2f2"/><rect x="112" y="16" width="16" height="16" style="fill:#f2f2f2"/><rect x="16" y="16" width="16" height="16" style="fill:#f2f2f2"/><rect x="16" y="112" width="16" height="16" style="fill:#f2f2f2"/><rect x="112" y="112" width="16" height="16" style="fill:#f2f2f2"/><rect x="32" y="48" width="16" height="16" style="fill:#f2f2f2"/><rect x="80" y="32" width="16" height="16" style="fill:#f2f2f2"/><rect x="48" y="64" width="16" height="16" style="fill:#f2f2f2"/><rect x="64" y="80" width="16" height="16" style="fill:#f2f2f2"/><rect x="96" y="80" width="16" height="16" style="fill:#f2f2f2"/><rect x="32" y="80" width="16" height="16" style="fill:#f2f2f2"/><rect x="80" y="64" width="16" height="16" style="fill:#f2f2f2"/><rect x="48" y="96" width="16" height="16" style="fill:#f2f2f2"/><rect x="80" y="96" width="16" height="16" style="fill:#f2f2f2"/><rect x="64" width="16" height="16" style="fill:#f2f2f2"/><rect x="64" y="128" width="16" height="16" style="fill:#f2f2f2"/><rect x="128" y="64" width="16" height="16" style="fill:#f2f2f2"/><rect y="64" width="16" height="16" style="fill:#f2f2f2"/><path d="M228.2,42.4a25.2472,25.2472,0,0,0-14.1-4,21.0276,21.0276,0,0,0-9.8,2,17.3379,17.3379,0,0,0-5.8,4.7,35.9036,35.9036,0,0,0-3.2,4.7h-1.1V39.2H181.8v90h12.7V94.5h.8a41.968,41.968,0,0,0,3.3,4.8,17.77,17.77,0,0,0,5.9,4.7,21.1619,21.1619,0,0,0,9.7,2,25.0888,25.0888,0,0,0,14.1-4.1A27.1962,27.1962,0,0,0,238,90.3c2.4-5,3.5-11.1,3.5-18.2s-1.2-13.1-3.6-18.2A26.3289,26.3289,0,0,0,228.2,42.4Zm-1.5,41.4a18.8624,18.8624,0,0,1-5.8,8.3,14.7924,14.7924,0,0,1-9.5,3,14.95,14.95,0,0,1-9.3-2.9,18.2133,18.2133,0,0,1-5.8-8.1,34.4715,34.4715,0,0,1-2-12.1,33.3252,33.3252,0,0,1,2-11.9,17.1814,17.1814,0,0,1,5.8-8,16.7728,16.7728,0,0,1,19,.1,18.0094,18.0094,0,0,1,5.8,8.1,32.4525,32.4525,0,0,1,1.9,11.6A33.6749,33.6749,0,0,1,226.7,83.8Z" style="fill:#f2f2f2"/><path d="M293,42.7a24.8933,24.8933,0,0,0-8.3-3.3,41.2442,41.2442,0,0,0-8.3-.9,38.6473,38.6473,0,0,0-11.3,1.7,24.9874,24.9874,0,0,0-9.5,5.4,23.5382,23.5382,0,0,0-6.2,9.7l12,2.7a14.8681,14.8681,0,0,1,5.1-6.3c2.5-1.9,5.8-2.8,10.1-2.8,4.1,0,7.2,1,9.3,3.1,2.1,2,3.1,4.9,3.1,8.7V61a3.6639,3.6639,0,0,1-1.7,3.3,13.5014,13.5014,0,0,1-5.3,1.5c-2.4.3-5.6.7-9.5,1.1a91.0359,91.0359,0,0,0-9.1,1.6,29.1557,29.1557,0,0,0-8.1,3.2,16.652,16.652,0,0,0-5.8,5.7,17.763,17.763,0,0,0-2.1,9.1,19.897,19.897,0,0,0,2.9,10.9,18.7115,18.7115,0,0,0,7.9,6.8,27.3489,27.3489,0,0,0,11.2,2.3,23.8194,23.8194,0,0,0,9.3-1.6,19.4907,19.4907,0,0,0,6.3-4,18.0742,18.0742,0,0,0,3.7-4.9h.5v8.9h12.4V61.2c0-4.8-.8-8.7-2.5-11.7A16.12,16.12,0,0,0,293,42.7Zm-3.9,38.4a14.5749,14.5749,0,0,1-2,7.3,14.0392,14.0392,0,0,1-5.8,5.5,18.2789,18.2789,0,0,1-9.1,2.1,15.3256,15.3256,0,0,1-8.9-2.4A9.0919,9.0919,0,0,1,261.6,81a11.6336,11.6336,0,0,1,4.9-3.2,32.3191,32.3191,0,0,1,6.8-1.6c1.1-.1,2.4-.3,3.9-.5,1.6-.2,3.2-.5,4.8-.7a41.33,41.33,0,0,0,4.4-1,5.6049,5.6049,0,0,0,2.6-1.3v8.4Z" style="fill:#f2f2f2"/><path d="M357.4,41.2a23.5532,23.5532,0,0,0-11.7-2.8,21.9044,21.9044,0,0,0-12.2,3.2,18.7242,18.7242,0,0,0-7.1,8.4h-.8V39.2H313.4v65.5h12.7V65.8a18.8656,18.8656,0,0,1,2-8.9,13.2794,13.2794,0,0,1,5.4-5.6,15.6644,15.6644,0,0,1,7.9-1.9c4.3,0,7.7,1.3,10.2,4s3.7,6.4,3.7,11.1v40.1H368V63.1c0-5.4-.9-9.9-2.8-13.6A17.9846,17.9846,0,0,0,357.4,41.2Z" style="fill:#f2f2f2"/><path d="M407.3,94a21.3,21.3,0,0,1-2.7.2,10.0164,10.0164,0,0,1-3.9-.7,5.7884,5.7884,0,0,1-2.9-2.5,11.5046,11.5046,0,0,1-1.1-5.6v-36h13.4V39.2H396.7V23.6H384V39.3h-9.6V49.5H384V88.1a16.8927,16.8927,0,0,0,2.7,9.8,16.4961,16.4961,0,0,0,7,5.8,24.2209,24.2209,0,0,0,9.4,1.8,23.7021,23.7021,0,0,0,5.1-.5,22.32,22.32,0,0,0,3.2-.9l-2.3-10.5A6.0442,6.0442,0,0,1,407.3,94Z" style="fill:#f2f2f2"/><path d="M461.4,42.7a24.8933,24.8933,0,0,0-8.3-3.3,41.2442,41.2442,0,0,0-8.3-.9,38.6473,38.6473,0,0,0-11.3,1.7,24.9874,24.9874,0,0,0-9.5,5.4,23.5382,23.5382,0,0,0-6.2,9.7l12,2.7a14.8681,14.8681,0,0,1,5.1-6.3c2.5-1.9,5.8-2.8,10.1-2.8,4.1,0,7.2,1,9.3,3.1,2.1,2,3.1,4.9,3.1,8.7V61a3.6639,3.6639,0,0,1-1.7,3.3,13.5014,13.5014,0,0,1-5.3,1.5c-2.4.3-5.6.7-9.5,1.1a91.0359,91.0359,0,0,0-9.1,1.6,29.1557,29.1557,0,0,0-8.1,3.2,16.652,16.652,0,0,0-5.8,5.7,17.763,17.763,0,0,0-2.1,9.1,19.897,19.897,0,0,0,2.9,10.9,18.7115,18.7115,0,0,0,7.9,6.8,27.3489,27.3489,0,0,0,11.2,2.3,23.8194,23.8194,0,0,0,9.3-1.6,19.4907,19.4907,0,0,0,6.3-4,18.0742,18.0742,0,0,0,3.7-4.9h.5v8.9H470V61.2c0-4.8-.8-8.7-2.5-11.7A16.12,16.12,0,0,0,461.4,42.7Zm-3.9,38.4a14.5749,14.5749,0,0,1-2,7.3,14.0392,14.0392,0,0,1-5.8,5.5,18.2789,18.2789,0,0,1-9.1,2.1,15.3256,15.3256,0,0,1-8.9-2.4A9.0919,9.0919,0,0,1,430,81a11.6336,11.6336,0,0,1,4.9-3.2,32.3191,32.3191,0,0,1,6.8-1.6c1.1-.1,2.4-.3,3.9-.5,1.6-.2,3.2-.5,4.8-.7a41.33,41.33,0,0,0,4.4-1,5.6054,5.6054,0,0,0,2.6-1.3v8.4Z" style="fill:#f2f2f2"/><polygon points="505.2 89.6 504.5 89.6 487.9 39.2 474.2 39.2 498 104.7 511.6 104.7 535.4 39.2 521.7 39.2 505.2 89.6" style="fill:#f2f2f2"/><rect x="542" y="39.2" width="12.7" height="65.5" style="fill:#f2f2f2"/><path d="M548.4,13.9a8.0057,8.0057,0,0,0-5.7,2.2,7.1427,7.1427,0,0,0-2.4,5.4,6.7887,6.7887,0,0,0,2.4,5.3,8.4841,8.4841,0,0,0,11.4,0,7.1625,7.1625,0,0,0,0-10.7A8.46,8.46,0,0,0,548.4,13.9Z" style="fill:#f2f2f2"/><path d="M598.9,68.1l-10.4-2.4c-3.6-.9-6.2-1.9-7.8-3.3a6.51,6.51,0,0,1-2.4-5.3,7.2411,7.2411,0,0,1,3.6-6.2,15.8827,15.8827,0,0,1,9-2.4,14.6647,14.6647,0,0,1,6.6,1.3,10.8623,10.8623,0,0,1,4.2,3.3,14.3955,14.3955,0,0,1,2.3,4.2l11.5-2A21.6705,21.6705,0,0,0,607.4,43c-4.1-3.1-9.6-4.6-16.7-4.6a31.8963,31.8963,0,0,0-13.1,2.5,20.6089,20.6089,0,0,0-8.9,6.8,16.2346,16.2346,0,0,0-3.2,10.1,15.8458,15.8458,0,0,0,4.4,11.5c2.9,3,7.4,5.3,13.5,6.6l11.1,2.4a15.7381,15.7381,0,0,1,7,3.2,6.8219,6.8219,0,0,1,2.3,5.2,7.4548,7.4548,0,0,1-3.8,6.4,17.6506,17.6506,0,0,1-10,2.6c-3.8,0-6.9-.8-9.3-2.5a11.3629,11.3629,0,0,1-4.7-7.3l-12.3,1.9a19.8873,19.8873,0,0,0,8.5,13.4c4.6,3.1,10.6,4.7,17.9,4.7a36.0311,36.0311,0,0,0,14-2.6,21.5713,21.5713,0,0,0,9.4-7.2,16.93,16.93,0,0,0,3.4-10.5,15.3753,15.3753,0,0,0-4.4-11.3C609.4,71.6,604.9,69.4,598.9,68.1Z" style="fill:#f2f2f2"/><path d="M669,42.6a32.9583,32.9583,0,0,0-32.2,0,29.13,29.13,0,0,0-10.7,11.8,39.8806,39.8806,0,0,0-3.8,17.8,39.14,39.14,0,0,0,3.8,17.7,27.8534,27.8534,0,0,0,10.7,11.8,32.9583,32.9583,0,0,0,32.2,0,28.5045,28.5045,0,0,0,10.7-11.8,39.7443,39.7443,0,0,0,3.8-17.7,39.8806,39.8806,0,0,0-3.8-17.8A29.8459,29.8459,0,0,0,669,42.6Zm-.4,41.2a18.9546,18.9546,0,0,1-5.8,8.4,15.2777,15.2777,0,0,1-9.9,3.2,15.7577,15.7577,0,0,1-10-3.2,17.4842,17.4842,0,0,1-5.8-8.4,32.6553,32.6553,0,0,1-1.9-11.5,32.653,32.653,0,0,1,1.9-11.5,19.8651,19.8651,0,0,1,5.8-8.5,17.0688,17.0688,0,0,1,19.9,0,18.4948,18.4948,0,0,1,5.8,8.5,33.046,33.046,0,0,1,1.9,11.5A33.046,33.046,0,0,1,668.6,83.8Z" style="fill:#f2f2f2"/><path d="M727.2,38.6a16.1184,16.1184,0,0,0-2.6-.2c-1.1-.1-2-.1-2.8-.1a18.2922,18.2922,0,0,0-10.3,3,15.9009,15.9009,0,0,0-6.3,8.3h-.7V39.2H692.2v65.5h12.7v-40a14.858,14.858,0,0,1,2-7.6,14.0391,14.0391,0,0,1,5.6-5.2,16.0466,16.0466,0,0,1,8-1.9,25.6145,25.6145,0,0,1,3.9.3,16.4869,16.4869,0,0,1,2.7.5l.1-12.2Z" style="fill:#f2f2f2"/><path d="M733.8,88.5a8.5358,8.5358,0,0,0-8.5,8.5,7.8547,7.8547,0,0,0,2.5,6,8.1606,8.1606,0,0,0,6,2.5,7.9631,7.9631,0,0,0,4.3-1.2,9.193,9.193,0,0,0,3.1-3.1,7.964,7.964,0,0,0,1.2-4.3,8.1606,8.1606,0,0,0-2.5-6A8.8787,8.8787,0,0,0,733.8,88.5Z" style="fill:#f2f2f2"/><rect x="754" y="39.2" width="12.7" height="65.5" style="fill:#f2f2f2"/><path d="M760.4,13.9a8.0057,8.0057,0,0,0-5.7,2.2,7.1427,7.1427,0,0,0-2.4,5.4,6.7887,6.7887,0,0,0,2.4,5.3,8.4841,8.4841,0,0,0,11.4,0,7.1625,7.1625,0,0,0,0-10.7A8.46,8.46,0,0,0,760.4,13.9Z" style="fill:#f2f2f2"/><path d="M832.7,54.5A27.8534,27.8534,0,0,0,822,42.7a32.9583,32.9583,0,0,0-32.2,0,29.13,29.13,0,0,0-10.7,11.8,39.8806,39.8806,0,0,0-3.8,17.8A39.14,39.14,0,0,0,779.1,90a27.8534,27.8534,0,0,0,10.7,11.8,32.9583,32.9583,0,0,0,32.2,0A28.5045,28.5045,0,0,0,832.7,90a39.7443,39.7443,0,0,0,3.8-17.7C836.5,65.5,835.3,59.5,832.7,54.5ZM821.8,83.8a18.9546,18.9546,0,0,1-5.8,8.4,15.2777,15.2777,0,0,1-9.9,3.2,15.7577,15.7577,0,0,1-10-3.2,17.4842,17.4842,0,0,1-5.8-8.4,32.6553,32.6553,0,0,1-1.9-11.5,32.653,32.653,0,0,1,1.9-11.5,19.8651,19.8651,0,0,1,5.8-8.5,17.0688,17.0688,0,0,1,19.9,0,18.4948,18.4948,0,0,1,5.8,8.5,33.046,33.046,0,0,1,1.9,11.5A35.5494,35.5494,0,0,1,821.8,83.8Z" style="fill:#f2f2f2"/></svg>